G04 EAGLE Gerber RS-274X export*
G75*
%MOMM*%
%FSLAX34Y34*%
%LPD*%
%INTop Copper*%
%IPPOS*%
%AMOC8*
5,1,8,0,0,1.08239X$1,22.5*%
G01*
%ADD10C,1.676400*%
%ADD11R,0.400000X1.150000*%
%ADD12C,0.150000*%
%ADD13R,0.250000X1.000000*%
%ADD14R,1.550000X0.600000*%
%ADD15R,1.800000X1.200000*%
%ADD16R,1.676400X1.676400*%
%ADD17R,1.000000X1.100000*%
%ADD18R,0.800000X0.800000*%
%ADD19R,0.600000X0.700000*%
%ADD20R,0.700000X0.600000*%
%ADD21C,2.000000*%
%ADD22C,0.254000*%
%ADD23C,1.200000*%
%ADD24C,0.406400*%


D10*
X83700Y252378D03*
X83700Y277778D03*
X109100Y252378D03*
X109100Y277778D03*
X134500Y252378D03*
X134500Y277778D03*
X159900Y252378D03*
X159900Y277778D03*
X185300Y252378D03*
X185300Y277778D03*
X210700Y252378D03*
X210700Y277778D03*
X236100Y252378D03*
X236100Y277778D03*
X261500Y252378D03*
X261500Y277778D03*
X286900Y252378D03*
X286900Y277778D03*
X312300Y252378D03*
X312300Y277778D03*
X337700Y252378D03*
X337700Y277778D03*
X363100Y252378D03*
X363100Y277778D03*
X388500Y252378D03*
X388500Y277778D03*
X413900Y252378D03*
X413900Y277778D03*
X439300Y252378D03*
X439300Y277778D03*
X464700Y252378D03*
X464700Y277778D03*
X490100Y252378D03*
X490100Y277778D03*
X515500Y252378D03*
X515500Y277778D03*
X540900Y252378D03*
X540900Y277778D03*
X566300Y252378D03*
X566300Y277778D03*
X20320Y221488D03*
X45720Y221488D03*
X71120Y221488D03*
X96520Y221488D03*
X121920Y221488D03*
X147320Y221488D03*
X172720Y221488D03*
X198120Y221488D03*
X223520Y221488D03*
X248920Y221488D03*
X274320Y221488D03*
X299720Y221488D03*
X325120Y221488D03*
X350520Y221488D03*
X375920Y221488D03*
X401320Y221488D03*
X426720Y221488D03*
X452120Y221488D03*
X477520Y221488D03*
X502920Y221488D03*
X528320Y221488D03*
X553720Y221488D03*
X579120Y221488D03*
X604520Y221488D03*
X629920Y221488D03*
D11*
X113960Y110224D03*
X120460Y110224D03*
X126960Y110224D03*
X133460Y110224D03*
X139960Y110224D03*
X146460Y110224D03*
X152960Y110224D03*
X159460Y110224D03*
X165960Y110224D03*
X172460Y110224D03*
X178960Y110224D03*
X185460Y110224D03*
X191960Y110224D03*
X198460Y110224D03*
X198460Y172224D03*
X191960Y172224D03*
X185460Y172224D03*
X178960Y172224D03*
X172460Y172224D03*
X165960Y172224D03*
X159460Y172224D03*
X152960Y172224D03*
X146460Y172224D03*
X139960Y172224D03*
X133460Y172224D03*
X126960Y172224D03*
X120460Y172224D03*
X113960Y172224D03*
D12*
X402300Y130250D02*
X402300Y112750D01*
X397800Y112750D01*
X397800Y130250D01*
X402300Y130250D01*
X402300Y114175D02*
X397800Y114175D01*
X397800Y115600D02*
X402300Y115600D01*
X402300Y117025D02*
X397800Y117025D01*
X397800Y118450D02*
X402300Y118450D01*
X402300Y119875D02*
X397800Y119875D01*
X397800Y121300D02*
X402300Y121300D01*
X402300Y122725D02*
X397800Y122725D01*
X397800Y124150D02*
X402300Y124150D01*
X402300Y125575D02*
X397800Y125575D01*
X397800Y127000D02*
X402300Y127000D01*
X402300Y128425D02*
X397800Y128425D01*
X397800Y129850D02*
X402300Y129850D01*
X415000Y130250D02*
X415000Y112750D01*
X410500Y112750D01*
X410500Y130250D01*
X415000Y130250D01*
X415000Y114175D02*
X410500Y114175D01*
X410500Y115600D02*
X415000Y115600D01*
X415000Y117025D02*
X410500Y117025D01*
X410500Y118450D02*
X415000Y118450D01*
X415000Y119875D02*
X410500Y119875D01*
X410500Y121300D02*
X415000Y121300D01*
X415000Y122725D02*
X410500Y122725D01*
X410500Y124150D02*
X415000Y124150D01*
X415000Y125575D02*
X410500Y125575D01*
X410500Y127000D02*
X415000Y127000D01*
X415000Y128425D02*
X410500Y128425D01*
X410500Y129850D02*
X415000Y129850D01*
X427700Y130250D02*
X427700Y112750D01*
X423200Y112750D01*
X423200Y130250D01*
X427700Y130250D01*
X427700Y114175D02*
X423200Y114175D01*
X423200Y115600D02*
X427700Y115600D01*
X427700Y117025D02*
X423200Y117025D01*
X423200Y118450D02*
X427700Y118450D01*
X427700Y119875D02*
X423200Y119875D01*
X423200Y121300D02*
X427700Y121300D01*
X427700Y122725D02*
X423200Y122725D01*
X423200Y124150D02*
X427700Y124150D01*
X427700Y125575D02*
X423200Y125575D01*
X423200Y127000D02*
X427700Y127000D01*
X427700Y128425D02*
X423200Y128425D01*
X423200Y129850D02*
X427700Y129850D01*
X440400Y130250D02*
X440400Y112750D01*
X435900Y112750D01*
X435900Y130250D01*
X440400Y130250D01*
X440400Y114175D02*
X435900Y114175D01*
X435900Y115600D02*
X440400Y115600D01*
X440400Y117025D02*
X435900Y117025D01*
X435900Y118450D02*
X440400Y118450D01*
X440400Y119875D02*
X435900Y119875D01*
X435900Y121300D02*
X440400Y121300D01*
X440400Y122725D02*
X435900Y122725D01*
X435900Y124150D02*
X440400Y124150D01*
X440400Y125575D02*
X435900Y125575D01*
X435900Y127000D02*
X440400Y127000D01*
X440400Y128425D02*
X435900Y128425D01*
X435900Y129850D02*
X440400Y129850D01*
X453100Y130250D02*
X453100Y112750D01*
X448600Y112750D01*
X448600Y130250D01*
X453100Y130250D01*
X453100Y114175D02*
X448600Y114175D01*
X448600Y115600D02*
X453100Y115600D01*
X453100Y117025D02*
X448600Y117025D01*
X448600Y118450D02*
X453100Y118450D01*
X453100Y119875D02*
X448600Y119875D01*
X448600Y121300D02*
X453100Y121300D01*
X453100Y122725D02*
X448600Y122725D01*
X448600Y124150D02*
X453100Y124150D01*
X453100Y125575D02*
X448600Y125575D01*
X448600Y127000D02*
X453100Y127000D01*
X453100Y128425D02*
X448600Y128425D01*
X448600Y129850D02*
X453100Y129850D01*
X465800Y130250D02*
X465800Y112750D01*
X461300Y112750D01*
X461300Y130250D01*
X465800Y130250D01*
X465800Y114175D02*
X461300Y114175D01*
X461300Y115600D02*
X465800Y115600D01*
X465800Y117025D02*
X461300Y117025D01*
X461300Y118450D02*
X465800Y118450D01*
X465800Y119875D02*
X461300Y119875D01*
X461300Y121300D02*
X465800Y121300D01*
X465800Y122725D02*
X461300Y122725D01*
X461300Y124150D02*
X465800Y124150D01*
X465800Y125575D02*
X461300Y125575D01*
X461300Y127000D02*
X465800Y127000D01*
X465800Y128425D02*
X461300Y128425D01*
X461300Y129850D02*
X465800Y129850D01*
X478500Y130250D02*
X478500Y112750D01*
X474000Y112750D01*
X474000Y130250D01*
X478500Y130250D01*
X478500Y114175D02*
X474000Y114175D01*
X474000Y115600D02*
X478500Y115600D01*
X478500Y117025D02*
X474000Y117025D01*
X474000Y118450D02*
X478500Y118450D01*
X478500Y119875D02*
X474000Y119875D01*
X474000Y121300D02*
X478500Y121300D01*
X478500Y122725D02*
X474000Y122725D01*
X474000Y124150D02*
X478500Y124150D01*
X478500Y125575D02*
X474000Y125575D01*
X474000Y127000D02*
X478500Y127000D01*
X478500Y128425D02*
X474000Y128425D01*
X474000Y129850D02*
X478500Y129850D01*
X491200Y130250D02*
X491200Y112750D01*
X486700Y112750D01*
X486700Y130250D01*
X491200Y130250D01*
X491200Y114175D02*
X486700Y114175D01*
X486700Y115600D02*
X491200Y115600D01*
X491200Y117025D02*
X486700Y117025D01*
X486700Y118450D02*
X491200Y118450D01*
X491200Y119875D02*
X486700Y119875D01*
X486700Y121300D02*
X491200Y121300D01*
X491200Y122725D02*
X486700Y122725D01*
X486700Y124150D02*
X491200Y124150D01*
X491200Y125575D02*
X486700Y125575D01*
X486700Y127000D02*
X491200Y127000D01*
X491200Y128425D02*
X486700Y128425D01*
X486700Y129850D02*
X491200Y129850D01*
X491200Y161850D02*
X491200Y179350D01*
X491200Y161850D02*
X486700Y161850D01*
X486700Y179350D01*
X491200Y179350D01*
X491200Y163275D02*
X486700Y163275D01*
X486700Y164700D02*
X491200Y164700D01*
X491200Y166125D02*
X486700Y166125D01*
X486700Y167550D02*
X491200Y167550D01*
X491200Y168975D02*
X486700Y168975D01*
X486700Y170400D02*
X491200Y170400D01*
X491200Y171825D02*
X486700Y171825D01*
X486700Y173250D02*
X491200Y173250D01*
X491200Y174675D02*
X486700Y174675D01*
X486700Y176100D02*
X491200Y176100D01*
X491200Y177525D02*
X486700Y177525D01*
X486700Y178950D02*
X491200Y178950D01*
X478500Y179350D02*
X478500Y161850D01*
X474000Y161850D01*
X474000Y179350D01*
X478500Y179350D01*
X478500Y163275D02*
X474000Y163275D01*
X474000Y164700D02*
X478500Y164700D01*
X478500Y166125D02*
X474000Y166125D01*
X474000Y167550D02*
X478500Y167550D01*
X478500Y168975D02*
X474000Y168975D01*
X474000Y170400D02*
X478500Y170400D01*
X478500Y171825D02*
X474000Y171825D01*
X474000Y173250D02*
X478500Y173250D01*
X478500Y174675D02*
X474000Y174675D01*
X474000Y176100D02*
X478500Y176100D01*
X478500Y177525D02*
X474000Y177525D01*
X474000Y178950D02*
X478500Y178950D01*
X465800Y179350D02*
X465800Y161850D01*
X461300Y161850D01*
X461300Y179350D01*
X465800Y179350D01*
X465800Y163275D02*
X461300Y163275D01*
X461300Y164700D02*
X465800Y164700D01*
X465800Y166125D02*
X461300Y166125D01*
X461300Y167550D02*
X465800Y167550D01*
X465800Y168975D02*
X461300Y168975D01*
X461300Y170400D02*
X465800Y170400D01*
X465800Y171825D02*
X461300Y171825D01*
X461300Y173250D02*
X465800Y173250D01*
X465800Y174675D02*
X461300Y174675D01*
X461300Y176100D02*
X465800Y176100D01*
X465800Y177525D02*
X461300Y177525D01*
X461300Y178950D02*
X465800Y178950D01*
X453100Y179350D02*
X453100Y161850D01*
X448600Y161850D01*
X448600Y179350D01*
X453100Y179350D01*
X453100Y163275D02*
X448600Y163275D01*
X448600Y164700D02*
X453100Y164700D01*
X453100Y166125D02*
X448600Y166125D01*
X448600Y167550D02*
X453100Y167550D01*
X453100Y168975D02*
X448600Y168975D01*
X448600Y170400D02*
X453100Y170400D01*
X453100Y171825D02*
X448600Y171825D01*
X448600Y173250D02*
X453100Y173250D01*
X453100Y174675D02*
X448600Y174675D01*
X448600Y176100D02*
X453100Y176100D01*
X453100Y177525D02*
X448600Y177525D01*
X448600Y178950D02*
X453100Y178950D01*
X440400Y179350D02*
X440400Y161850D01*
X435900Y161850D01*
X435900Y179350D01*
X440400Y179350D01*
X440400Y163275D02*
X435900Y163275D01*
X435900Y164700D02*
X440400Y164700D01*
X440400Y166125D02*
X435900Y166125D01*
X435900Y167550D02*
X440400Y167550D01*
X440400Y168975D02*
X435900Y168975D01*
X435900Y170400D02*
X440400Y170400D01*
X440400Y171825D02*
X435900Y171825D01*
X435900Y173250D02*
X440400Y173250D01*
X440400Y174675D02*
X435900Y174675D01*
X435900Y176100D02*
X440400Y176100D01*
X440400Y177525D02*
X435900Y177525D01*
X435900Y178950D02*
X440400Y178950D01*
X427700Y179350D02*
X427700Y161850D01*
X423200Y161850D01*
X423200Y179350D01*
X427700Y179350D01*
X427700Y163275D02*
X423200Y163275D01*
X423200Y164700D02*
X427700Y164700D01*
X427700Y166125D02*
X423200Y166125D01*
X423200Y167550D02*
X427700Y167550D01*
X427700Y168975D02*
X423200Y168975D01*
X423200Y170400D02*
X427700Y170400D01*
X427700Y171825D02*
X423200Y171825D01*
X423200Y173250D02*
X427700Y173250D01*
X427700Y174675D02*
X423200Y174675D01*
X423200Y176100D02*
X427700Y176100D01*
X427700Y177525D02*
X423200Y177525D01*
X423200Y178950D02*
X427700Y178950D01*
X415000Y179350D02*
X415000Y161850D01*
X410500Y161850D01*
X410500Y179350D01*
X415000Y179350D01*
X415000Y163275D02*
X410500Y163275D01*
X410500Y164700D02*
X415000Y164700D01*
X415000Y166125D02*
X410500Y166125D01*
X410500Y167550D02*
X415000Y167550D01*
X415000Y168975D02*
X410500Y168975D01*
X410500Y170400D02*
X415000Y170400D01*
X415000Y171825D02*
X410500Y171825D01*
X410500Y173250D02*
X415000Y173250D01*
X415000Y174675D02*
X410500Y174675D01*
X410500Y176100D02*
X415000Y176100D01*
X415000Y177525D02*
X410500Y177525D01*
X410500Y178950D02*
X415000Y178950D01*
X402300Y179350D02*
X402300Y161850D01*
X397800Y161850D01*
X397800Y179350D01*
X402300Y179350D01*
X402300Y163275D02*
X397800Y163275D01*
X397800Y164700D02*
X402300Y164700D01*
X402300Y166125D02*
X397800Y166125D01*
X397800Y167550D02*
X402300Y167550D01*
X402300Y168975D02*
X397800Y168975D01*
X397800Y170400D02*
X402300Y170400D01*
X402300Y171825D02*
X397800Y171825D01*
X397800Y173250D02*
X402300Y173250D01*
X402300Y174675D02*
X397800Y174675D01*
X397800Y176100D02*
X402300Y176100D01*
X402300Y177525D02*
X397800Y177525D01*
X397800Y178950D02*
X402300Y178950D01*
D13*
X261460Y162355D03*
X256460Y162355D03*
X251460Y162355D03*
X246460Y162355D03*
X241460Y162355D03*
X241460Y120093D03*
X246460Y120093D03*
X251460Y120093D03*
X256460Y120093D03*
X261460Y120093D03*
D14*
X600462Y135000D03*
X600462Y145000D03*
X600462Y155000D03*
X600462Y165000D03*
D15*
X639462Y122000D03*
X639462Y178000D03*
D14*
X50540Y165000D03*
X50540Y155000D03*
X50540Y145000D03*
X50540Y135000D03*
D15*
X11540Y178000D03*
X11540Y122000D03*
D16*
X172600Y38100D03*
D10*
X172600Y63500D03*
X198000Y38100D03*
X198000Y63500D03*
X223400Y38100D03*
X223400Y63500D03*
X248800Y38100D03*
X248800Y63500D03*
X274200Y38100D03*
X274200Y63500D03*
X299600Y38100D03*
X299600Y63500D03*
X325000Y38100D03*
X325000Y63500D03*
X350400Y38100D03*
X350400Y63500D03*
X375800Y38100D03*
X375800Y63500D03*
X401200Y38100D03*
X401200Y63500D03*
X426600Y38100D03*
X426600Y63500D03*
X452000Y38100D03*
X452000Y63500D03*
X477400Y38100D03*
X477400Y63500D03*
D17*
X95250Y160900D03*
X95250Y143900D03*
X279146Y149724D03*
X279146Y132724D03*
X374650Y173600D03*
X374650Y156600D03*
X218068Y189484D03*
X235068Y189484D03*
D18*
X213487Y144533D03*
X213487Y129533D03*
X95250Y33775D03*
X95250Y48775D03*
D19*
X223694Y119253D03*
X213694Y119253D03*
D20*
X95250Y61675D03*
X95250Y71675D03*
D18*
X63500Y118625D03*
X63500Y103625D03*
D19*
X74375Y104775D03*
X84375Y104775D03*
D21*
X374650Y107950D03*
X349250Y139700D03*
D22*
X36830Y204978D02*
X20320Y221488D01*
X36830Y204978D02*
X55880Y204978D01*
X58420Y207518D01*
X58420Y231648D01*
X69850Y243078D01*
X69850Y257048D01*
X77470Y264668D01*
X88900Y264668D01*
X101190Y252378D01*
X109100Y252378D01*
X120278Y172042D02*
X120278Y141441D01*
X120278Y172042D02*
X120460Y172224D01*
X120278Y141441D02*
X114045Y135208D01*
X20320Y221488D02*
X17018Y221488D01*
X14732Y219202D01*
X14732Y211328D01*
X24226Y201834D01*
X124818Y186690D02*
X204629Y186690D01*
X213614Y177705D01*
X120460Y172224D02*
X120388Y172296D01*
X120388Y182260D01*
X124818Y186690D01*
X213614Y177705D02*
X213614Y166624D01*
X233045Y147193D01*
X245237Y147193D01*
X251460Y153416D01*
X251460Y162355D01*
X251460Y173990D01*
X247650Y177800D01*
D23*
X247650Y177800D03*
D22*
X559943Y128143D02*
X586800Y155000D01*
X559943Y55880D02*
X522351Y18288D01*
X559943Y55880D02*
X559943Y128143D01*
X522351Y18288D02*
X381000Y18288D01*
X29377Y135986D02*
X24226Y141137D01*
X24226Y201834D01*
X50428Y145112D02*
X50540Y145000D01*
X50428Y145112D02*
X45951Y145112D01*
X36825Y135986D01*
X29377Y135986D01*
X74342Y135208D02*
X114045Y135208D01*
X64550Y145000D02*
X50540Y145000D01*
X64550Y145000D02*
X74342Y135208D01*
X586800Y155000D02*
X600462Y155000D01*
X375800Y38100D02*
X375800Y23488D01*
X381000Y18288D01*
X127142Y138249D02*
X119450Y130557D01*
X127142Y172042D02*
X126960Y172224D01*
X127142Y172042D02*
X127142Y138249D01*
D23*
X41910Y114300D03*
D22*
X126960Y172224D02*
X127142Y172406D01*
X129803Y181102D02*
X202184Y181102D01*
X127142Y178441D02*
X127142Y172406D01*
X127142Y178441D02*
X129803Y181102D01*
X206502Y176784D02*
X206502Y163957D01*
X229235Y141224D01*
X206502Y176784D02*
X202184Y181102D01*
X229235Y141224D02*
X250857Y141224D01*
X256540Y146907D01*
X256540Y162275D02*
X256460Y162355D01*
X256540Y162275D02*
X256540Y146907D01*
X256460Y162355D02*
X256460Y170608D01*
X261244Y175392D01*
D23*
X261244Y175392D03*
D22*
X549910Y131063D02*
X549910Y63151D01*
X512159Y25400D01*
X393700Y25400D01*
X50540Y135000D02*
X41656Y126116D01*
X41656Y114554D02*
X41910Y114300D01*
X41656Y114554D02*
X41656Y126116D01*
X50540Y135000D02*
X62453Y135000D01*
X66896Y130557D01*
X119450Y130557D01*
X583847Y165000D02*
X600462Y165000D01*
X583847Y165000D02*
X549910Y131063D01*
X393700Y25400D02*
X388500Y30600D01*
X388500Y46736D02*
X375800Y59436D01*
X375800Y63500D01*
X388500Y46736D02*
X388500Y30600D01*
X162560Y236728D02*
X147320Y221488D01*
X162560Y236728D02*
X193040Y236728D01*
X208690Y252378D01*
X210700Y252378D01*
X147320Y221488D02*
X147320Y208280D01*
X154432Y201168D01*
X247904Y201168D01*
X315094Y133978D01*
X315094Y69399D02*
X313824Y68129D01*
X313824Y49276D01*
X325000Y38100D01*
X315094Y69399D02*
X315094Y133978D01*
X227330Y221488D02*
X223520Y221488D01*
X227330Y221488D02*
X258220Y252378D01*
X261500Y252378D01*
X259334Y210058D02*
X236982Y210058D01*
X259334Y210058D02*
X335160Y134232D01*
X236982Y210058D02*
X225552Y221488D01*
X223520Y221488D01*
X335160Y78740D02*
X350400Y63500D01*
X335160Y78740D02*
X335160Y134232D01*
X325120Y239558D02*
X312300Y252378D01*
X325120Y239558D02*
X325120Y221488D01*
X356108Y190500D01*
X419100Y184404D02*
X419100Y158233D01*
X413004Y190500D02*
X356108Y190500D01*
X413004Y190500D02*
X419100Y184404D01*
X416656Y155789D02*
X416656Y148503D01*
X421807Y143352D01*
X439614Y143352D01*
X419100Y158233D02*
X416656Y155789D01*
X439614Y143352D02*
X463550Y167288D01*
X463550Y170600D01*
X463550Y150212D01*
X482600Y131162D01*
X482600Y94100D01*
X464700Y76200D01*
X464700Y50800D01*
X452000Y38100D01*
X350520Y239558D02*
X337700Y252378D01*
X350520Y239558D02*
X350520Y221488D01*
X375158Y196850D01*
X415212Y196850D01*
X432356Y179706D02*
X432356Y160382D01*
X434432Y158306D01*
X450850Y162560D02*
X450850Y170600D01*
X432356Y179706D02*
X415212Y196850D01*
X434432Y158306D02*
X446596Y158306D01*
X450850Y162560D01*
X450850Y170600D02*
X450850Y182372D01*
X455676Y187198D01*
X465328Y187198D01*
X469900Y182626D01*
X469900Y158566D01*
X495688Y132778D01*
X495688Y81788D01*
X477400Y63500D01*
X363100Y234308D02*
X363100Y252378D01*
X363100Y234308D02*
X375920Y221488D01*
X379165Y221488D01*
X397453Y203200D01*
X419100Y203200D02*
X438150Y184150D01*
X419100Y203200D02*
X397453Y203200D01*
X438150Y183642D02*
X438150Y170600D01*
X438150Y183642D02*
X438150Y184150D01*
X455580Y201072D02*
X500213Y201072D01*
X510674Y190611D01*
X510674Y63500D01*
X438150Y183642D02*
X455580Y201072D01*
X510674Y63500D02*
X485274Y38100D01*
X477400Y38100D01*
X452120Y239558D02*
X439300Y252378D01*
X452120Y239558D02*
X452120Y221488D01*
X464700Y234308D02*
X464700Y252378D01*
X464700Y234308D02*
X477520Y221488D01*
X505750Y236728D02*
X490100Y252378D01*
X505750Y236728D02*
X514350Y236728D01*
X528320Y222758D01*
X528320Y221488D01*
X528610Y239268D02*
X515500Y252378D01*
X528610Y239268D02*
X553720Y239268D01*
X571500Y221488D01*
X579120Y221488D01*
X503210Y264668D02*
X490100Y277778D01*
X503210Y264668D02*
X554990Y264668D01*
X566300Y253358D01*
X566300Y252378D01*
X236100Y277778D02*
X236100Y281058D01*
X245110Y290068D01*
X303530Y290068D01*
X312300Y281298D01*
X312300Y277778D01*
D24*
X113960Y110224D02*
X103390Y110224D01*
X102870Y110744D01*
D23*
X102870Y110744D03*
D24*
X113960Y110224D02*
X120460Y110224D01*
X126960Y110224D01*
X133460Y110224D01*
X139960Y110224D01*
X198460Y110224D02*
X209054Y110224D01*
X212090Y107188D01*
D23*
X212090Y107188D03*
D24*
X425450Y152146D02*
X425450Y170600D01*
D23*
X425450Y152146D03*
D24*
X488950Y185166D02*
X493776Y189992D01*
X488950Y185166D02*
X488950Y170600D01*
D23*
X493776Y189992D03*
D24*
X600462Y135000D02*
X615210Y135000D01*
X617946Y133822D01*
X619252Y135128D01*
D23*
X619252Y135128D03*
X144780Y157734D03*
D24*
X106237Y143900D02*
X95250Y143900D01*
X106237Y143900D02*
X108803Y146467D01*
D23*
X108803Y146467D03*
X298958Y131318D03*
D24*
X374650Y156600D02*
X387486Y156600D01*
X387604Y156718D01*
D23*
X387604Y156718D03*
D24*
X50540Y165000D02*
X50540Y180080D01*
X54610Y184150D01*
D23*
X54610Y184150D03*
D24*
X266515Y120093D02*
X279146Y132724D01*
X266515Y120093D02*
X261460Y120093D01*
X280552Y131318D02*
X298958Y131318D01*
X280552Y131318D02*
X279146Y132724D01*
D23*
X223910Y169418D03*
D24*
X223910Y183642D02*
X218068Y189484D01*
X223910Y183642D02*
X223910Y169418D01*
X223694Y122094D02*
X223694Y119253D01*
X223694Y122094D02*
X234950Y133350D01*
X278520Y133350D01*
X95250Y102084D02*
X95250Y71675D01*
X95250Y102084D02*
X103390Y110224D01*
X133460Y172224D02*
X139960Y172224D01*
X146460Y172224D01*
X146460Y159414D02*
X144780Y157734D01*
X146460Y159414D02*
X146460Y172224D01*
X92559Y104775D02*
X84375Y104775D01*
X92559Y104775D02*
X95250Y102084D01*
D22*
X115570Y236728D02*
X121920Y243078D01*
X121920Y259588D01*
X128270Y265938D01*
X146050Y265938D01*
X157890Y277778D01*
X159900Y277778D01*
X115570Y236728D02*
X86360Y236728D01*
X71120Y221488D01*
D23*
X113792Y50546D03*
D22*
X120396Y57150D02*
X163145Y57150D01*
X120396Y57150D02*
X113792Y50546D01*
X163145Y57150D02*
X167971Y52324D01*
X186824Y52324D02*
X198000Y63500D01*
X186824Y52324D02*
X167971Y52324D01*
X147320Y248158D02*
X147320Y257048D01*
X154940Y264668D01*
X170180Y264668D01*
X183290Y277778D01*
X185300Y277778D01*
X147320Y248158D02*
X134620Y235458D01*
X134620Y216408D01*
X125730Y207518D01*
X113030Y207518D01*
X99060Y221488D01*
X96520Y221488D01*
D23*
X112268Y70358D03*
D22*
X113792Y70358D01*
X112268Y70358D02*
X165742Y70358D01*
X172600Y63500D01*
X223520Y264958D02*
X210700Y277778D01*
X223520Y264958D02*
X223520Y248158D01*
X210820Y235458D01*
X210820Y216408D01*
X203708Y209296D01*
X184912Y209296D01*
X172720Y221488D01*
X166624Y221488D01*
X155655Y210519D02*
X155655Y205693D01*
X155861Y205486D01*
X155655Y210519D02*
X166624Y221488D01*
X155861Y205486D02*
X252984Y205486D01*
X325000Y133470D01*
X325000Y63500D01*
X274320Y221488D02*
X274320Y265198D01*
X286900Y277778D01*
X299720Y262128D02*
X299720Y221488D01*
X299720Y262128D02*
X302260Y264668D01*
X322580Y264668D01*
X335690Y277778D01*
X337700Y277778D01*
X363100Y277778D02*
X375920Y264958D01*
X375920Y244348D01*
X398780Y221488D01*
X401320Y221488D01*
D23*
X476250Y190500D03*
D22*
X476250Y170600D01*
X388500Y274948D02*
X388500Y277778D01*
X388500Y274948D02*
X401320Y262128D01*
X401320Y243078D01*
X422910Y221488D01*
X426720Y221488D01*
X477520Y264958D02*
X464700Y277778D01*
X477520Y264958D02*
X477520Y245618D01*
X501650Y221488D01*
X502920Y221488D01*
X148166Y108518D02*
X146460Y110224D01*
X148166Y108518D02*
X148166Y90181D01*
X162655Y75692D01*
X212224Y65786D02*
X212224Y49276D01*
X223400Y38100D01*
X202318Y75692D02*
X162655Y75692D01*
X202318Y75692D02*
X212224Y65786D01*
X152960Y97484D02*
X152960Y110224D01*
X152960Y97484D02*
X168656Y81788D01*
X208160Y81788D01*
X223400Y66548D01*
X223400Y63500D01*
X159460Y102160D02*
X159460Y110224D01*
X159460Y102160D02*
X171958Y89662D01*
X213240Y89662D01*
X237624Y65278D01*
X237624Y49276D02*
X248800Y38100D01*
X237624Y49276D02*
X237624Y65278D01*
X165960Y104296D02*
X165960Y110224D01*
X165960Y104296D02*
X173736Y96520D01*
X219336Y96520D01*
X248800Y67056D02*
X248800Y63500D01*
X248800Y67056D02*
X219336Y96520D01*
D24*
X77350Y118625D02*
X63500Y118625D01*
X77350Y118625D02*
X79375Y120650D01*
X168313Y120650D02*
X172460Y116503D01*
X172460Y110224D01*
X168313Y120650D02*
X79375Y120650D01*
X213480Y144526D02*
X213487Y144533D01*
X206983Y144526D02*
X178960Y116503D01*
X178960Y110224D01*
X206983Y144526D02*
X213480Y144526D01*
D22*
X386500Y107950D02*
X400050Y121500D01*
X386500Y107950D02*
X374650Y107950D01*
X412750Y121500D02*
X412750Y136525D01*
X409575Y139700D01*
X349250Y139700D01*
X425450Y121500D02*
X425450Y94100D01*
X401200Y69850D02*
X401200Y63500D01*
X401200Y69850D02*
X425450Y94100D01*
X438150Y94665D02*
X414408Y70923D01*
X414408Y50292D01*
X438150Y94665D02*
X438150Y121500D01*
X414408Y50292D02*
X426600Y38100D01*
X450850Y87750D02*
X450850Y121500D01*
X450850Y87750D02*
X426600Y63500D01*
X463550Y87750D02*
X463550Y121500D01*
X463550Y87750D02*
X452000Y76200D01*
X452000Y63500D01*
D23*
X33020Y144780D03*
D24*
X286900Y208400D02*
X286900Y252378D01*
X286900Y208400D02*
X321652Y173648D01*
X400050Y170600D02*
X412750Y170600D01*
X106574Y172224D02*
X95250Y160900D01*
X106574Y172224D02*
X113960Y172224D01*
X269376Y149724D02*
X279146Y149724D01*
X261460Y157640D02*
X261460Y162355D01*
X261460Y157640D02*
X269376Y149724D01*
X374602Y173648D02*
X374650Y173600D01*
X374602Y173648D02*
X321652Y173648D01*
X374650Y173600D02*
X397050Y173600D01*
X400050Y170600D01*
X286403Y149724D02*
X279146Y149724D01*
X286403Y149724D02*
X292359Y143769D01*
D23*
X292359Y143769D03*
X321652Y173648D03*
X110998Y25400D03*
D24*
X191650Y25400D01*
X198000Y31750D02*
X198000Y38100D01*
X198000Y31750D02*
X191650Y25400D01*
X198000Y38100D02*
X225432Y10668D01*
X571500Y50800D02*
X571500Y121817D01*
X571500Y50800D02*
X531368Y10668D01*
X328937Y10668D01*
D22*
X412592Y146820D02*
X412592Y157472D01*
X412592Y146820D02*
X419100Y140312D01*
X412750Y157630D02*
X412750Y170600D01*
X412750Y157630D02*
X412592Y157472D01*
X419100Y100450D02*
X388500Y69850D01*
X419100Y100450D02*
X419100Y140312D01*
X394275Y45025D02*
X401200Y38100D01*
X394275Y45025D02*
X394275Y51375D01*
X388500Y57150D01*
X388500Y69850D01*
D23*
X338335Y20066D03*
D24*
X328937Y10668D01*
X50540Y155000D02*
X43240Y155000D01*
X33020Y144780D01*
X50540Y155000D02*
X89350Y155000D01*
X95250Y160900D01*
X594683Y145000D02*
X600462Y145000D01*
X594683Y145000D02*
X571500Y121817D01*
X110998Y25400D02*
X103625Y25400D01*
X95250Y33775D01*
X225432Y10668D02*
X328937Y10668D01*
D22*
X235110Y113743D02*
X241460Y120093D01*
X235110Y113743D02*
X235110Y95090D01*
X260350Y69850D02*
X260350Y50800D01*
X260350Y69850D02*
X235110Y95090D01*
X273050Y38100D02*
X274200Y38100D01*
X273050Y38100D02*
X260350Y50800D01*
X246460Y96948D02*
X246460Y120093D01*
X274200Y69208D02*
X274200Y63500D01*
X274200Y69208D02*
X246460Y96948D01*
X251460Y104331D02*
X251460Y120093D01*
X285750Y70041D02*
X285750Y44450D01*
X285750Y70041D02*
X251460Y104331D01*
X285750Y44450D02*
X292100Y38100D01*
X299600Y38100D01*
X256460Y111840D02*
X256460Y120093D01*
X299600Y68700D02*
X299600Y63500D01*
X299600Y68700D02*
X256460Y111840D01*
X243994Y152910D02*
X246774Y155690D01*
X243994Y152910D02*
X239434Y152910D01*
X246774Y162041D02*
X246460Y162355D01*
X246774Y162041D02*
X246774Y155690D01*
X239434Y152910D02*
X234814Y157530D01*
X234814Y189230D02*
X235068Y189484D01*
X234814Y189230D02*
X234814Y157530D01*
D24*
X213487Y129533D02*
X213694Y129326D01*
X213694Y119253D01*
X95250Y61675D02*
X95250Y48775D01*
X63500Y103625D02*
X64650Y104775D01*
X74375Y104775D01*
D22*
X178960Y159910D02*
X178960Y172224D01*
X174625Y155575D02*
X171450Y155575D01*
D23*
X171450Y155575D03*
D22*
X174625Y155575D02*
X178960Y159910D01*
X185460Y157440D02*
X185460Y172224D01*
D23*
X192659Y155575D03*
D22*
X187325Y155575D02*
X185460Y157440D01*
X187325Y155575D02*
X192659Y155575D01*
M02*
