G04 EAGLE Gerber RS-274X export*
G75*
%MOMM*%
%FSLAX34Y34*%
%LPD*%
%INSoldermask Bottom*%
%IPPOS*%
%AMOC8*
5,1,8,0,0,1.08239X$1,22.5*%
G01*
%ADD10C,1.803400*%
%ADD11C,2.927000*%
%ADD12R,1.803400X1.803400*%
%ADD13C,2.127000*%
%ADD14C,1.327000*%


D10*
X83700Y252378D03*
X83700Y277778D03*
X109100Y252378D03*
X109100Y277778D03*
X134500Y252378D03*
X134500Y277778D03*
X159900Y252378D03*
X159900Y277778D03*
X185300Y252378D03*
X185300Y277778D03*
X210700Y252378D03*
X210700Y277778D03*
X236100Y252378D03*
X236100Y277778D03*
X261500Y252378D03*
X261500Y277778D03*
X286900Y252378D03*
X286900Y277778D03*
X312300Y252378D03*
X312300Y277778D03*
X337700Y252378D03*
X337700Y277778D03*
X363100Y252378D03*
X363100Y277778D03*
X388500Y252378D03*
X388500Y277778D03*
X413900Y252378D03*
X413900Y277778D03*
X439300Y252378D03*
X439300Y277778D03*
X464700Y252378D03*
X464700Y277778D03*
X490100Y252378D03*
X490100Y277778D03*
X515500Y252378D03*
X515500Y277778D03*
X540900Y252378D03*
X540900Y277778D03*
X566300Y252378D03*
X566300Y277778D03*
D11*
X35000Y35078D03*
X35000Y265078D03*
X615000Y265078D03*
X615000Y35078D03*
D10*
X20320Y221488D03*
X45720Y221488D03*
X71120Y221488D03*
X96520Y221488D03*
X121920Y221488D03*
X147320Y221488D03*
X172720Y221488D03*
X198120Y221488D03*
X223520Y221488D03*
X248920Y221488D03*
X274320Y221488D03*
X299720Y221488D03*
X325120Y221488D03*
X350520Y221488D03*
X375920Y221488D03*
X401320Y221488D03*
X426720Y221488D03*
X452120Y221488D03*
X477520Y221488D03*
X502920Y221488D03*
X528320Y221488D03*
X553720Y221488D03*
X579120Y221488D03*
X604520Y221488D03*
X629920Y221488D03*
D12*
X172600Y38100D03*
D10*
X172600Y63500D03*
X198000Y38100D03*
X198000Y63500D03*
X223400Y38100D03*
X223400Y63500D03*
X248800Y38100D03*
X248800Y63500D03*
X274200Y38100D03*
X274200Y63500D03*
X299600Y38100D03*
X299600Y63500D03*
X325000Y38100D03*
X325000Y63500D03*
X350400Y38100D03*
X350400Y63500D03*
X375800Y38100D03*
X375800Y63500D03*
X401200Y38100D03*
X401200Y63500D03*
X426600Y38100D03*
X426600Y63500D03*
X452000Y38100D03*
X452000Y63500D03*
X477400Y38100D03*
X477400Y63500D03*
D13*
X155575Y127000D03*
X184150Y180975D03*
D14*
X247650Y177800D03*
X41910Y114300D03*
X261244Y175392D03*
X102870Y110744D03*
X212090Y107188D03*
X425450Y152146D03*
X493776Y189992D03*
X619252Y135128D03*
X144780Y157734D03*
X108803Y146467D03*
X298958Y131318D03*
X387604Y156718D03*
X54610Y184150D03*
X223910Y169418D03*
X113792Y50546D03*
X112268Y70358D03*
X476250Y190500D03*
X33020Y144780D03*
X292359Y143769D03*
X321652Y173648D03*
X110998Y25400D03*
X338335Y20066D03*
X171450Y155575D03*
X192659Y155575D03*
M02*
