G04 EAGLE Gerber RS-274X export*
G75*
%MOMM*%
%FSLAX34Y34*%
%LPD*%
%INSolderpaste Top*%
%IPPOS*%
%AMOC8*
5,1,8,0,0,1.08239X$1,22.5*%
G01*
%ADD10R,0.400000X1.150000*%
%ADD11C,0.150000*%
%ADD12R,0.250000X1.000000*%
%ADD13R,1.550000X0.600000*%
%ADD14R,1.800000X1.200000*%
%ADD15R,1.000000X1.100000*%
%ADD16R,0.800000X0.800000*%
%ADD17R,0.600000X0.700000*%
%ADD18R,0.700000X0.600000*%


D10*
X113960Y110224D03*
X120460Y110224D03*
X126960Y110224D03*
X133460Y110224D03*
X139960Y110224D03*
X146460Y110224D03*
X152960Y110224D03*
X159460Y110224D03*
X165960Y110224D03*
X172460Y110224D03*
X178960Y110224D03*
X185460Y110224D03*
X191960Y110224D03*
X198460Y110224D03*
X198460Y172224D03*
X191960Y172224D03*
X185460Y172224D03*
X178960Y172224D03*
X172460Y172224D03*
X165960Y172224D03*
X159460Y172224D03*
X152960Y172224D03*
X146460Y172224D03*
X139960Y172224D03*
X133460Y172224D03*
X126960Y172224D03*
X120460Y172224D03*
X113960Y172224D03*
D11*
X402300Y130250D02*
X402300Y112750D01*
X397800Y112750D01*
X397800Y130250D01*
X402300Y130250D01*
X402300Y114175D02*
X397800Y114175D01*
X397800Y115600D02*
X402300Y115600D01*
X402300Y117025D02*
X397800Y117025D01*
X397800Y118450D02*
X402300Y118450D01*
X402300Y119875D02*
X397800Y119875D01*
X397800Y121300D02*
X402300Y121300D01*
X402300Y122725D02*
X397800Y122725D01*
X397800Y124150D02*
X402300Y124150D01*
X402300Y125575D02*
X397800Y125575D01*
X397800Y127000D02*
X402300Y127000D01*
X402300Y128425D02*
X397800Y128425D01*
X397800Y129850D02*
X402300Y129850D01*
X415000Y130250D02*
X415000Y112750D01*
X410500Y112750D01*
X410500Y130250D01*
X415000Y130250D01*
X415000Y114175D02*
X410500Y114175D01*
X410500Y115600D02*
X415000Y115600D01*
X415000Y117025D02*
X410500Y117025D01*
X410500Y118450D02*
X415000Y118450D01*
X415000Y119875D02*
X410500Y119875D01*
X410500Y121300D02*
X415000Y121300D01*
X415000Y122725D02*
X410500Y122725D01*
X410500Y124150D02*
X415000Y124150D01*
X415000Y125575D02*
X410500Y125575D01*
X410500Y127000D02*
X415000Y127000D01*
X415000Y128425D02*
X410500Y128425D01*
X410500Y129850D02*
X415000Y129850D01*
X427700Y130250D02*
X427700Y112750D01*
X423200Y112750D01*
X423200Y130250D01*
X427700Y130250D01*
X427700Y114175D02*
X423200Y114175D01*
X423200Y115600D02*
X427700Y115600D01*
X427700Y117025D02*
X423200Y117025D01*
X423200Y118450D02*
X427700Y118450D01*
X427700Y119875D02*
X423200Y119875D01*
X423200Y121300D02*
X427700Y121300D01*
X427700Y122725D02*
X423200Y122725D01*
X423200Y124150D02*
X427700Y124150D01*
X427700Y125575D02*
X423200Y125575D01*
X423200Y127000D02*
X427700Y127000D01*
X427700Y128425D02*
X423200Y128425D01*
X423200Y129850D02*
X427700Y129850D01*
X440400Y130250D02*
X440400Y112750D01*
X435900Y112750D01*
X435900Y130250D01*
X440400Y130250D01*
X440400Y114175D02*
X435900Y114175D01*
X435900Y115600D02*
X440400Y115600D01*
X440400Y117025D02*
X435900Y117025D01*
X435900Y118450D02*
X440400Y118450D01*
X440400Y119875D02*
X435900Y119875D01*
X435900Y121300D02*
X440400Y121300D01*
X440400Y122725D02*
X435900Y122725D01*
X435900Y124150D02*
X440400Y124150D01*
X440400Y125575D02*
X435900Y125575D01*
X435900Y127000D02*
X440400Y127000D01*
X440400Y128425D02*
X435900Y128425D01*
X435900Y129850D02*
X440400Y129850D01*
X453100Y130250D02*
X453100Y112750D01*
X448600Y112750D01*
X448600Y130250D01*
X453100Y130250D01*
X453100Y114175D02*
X448600Y114175D01*
X448600Y115600D02*
X453100Y115600D01*
X453100Y117025D02*
X448600Y117025D01*
X448600Y118450D02*
X453100Y118450D01*
X453100Y119875D02*
X448600Y119875D01*
X448600Y121300D02*
X453100Y121300D01*
X453100Y122725D02*
X448600Y122725D01*
X448600Y124150D02*
X453100Y124150D01*
X453100Y125575D02*
X448600Y125575D01*
X448600Y127000D02*
X453100Y127000D01*
X453100Y128425D02*
X448600Y128425D01*
X448600Y129850D02*
X453100Y129850D01*
X465800Y130250D02*
X465800Y112750D01*
X461300Y112750D01*
X461300Y130250D01*
X465800Y130250D01*
X465800Y114175D02*
X461300Y114175D01*
X461300Y115600D02*
X465800Y115600D01*
X465800Y117025D02*
X461300Y117025D01*
X461300Y118450D02*
X465800Y118450D01*
X465800Y119875D02*
X461300Y119875D01*
X461300Y121300D02*
X465800Y121300D01*
X465800Y122725D02*
X461300Y122725D01*
X461300Y124150D02*
X465800Y124150D01*
X465800Y125575D02*
X461300Y125575D01*
X461300Y127000D02*
X465800Y127000D01*
X465800Y128425D02*
X461300Y128425D01*
X461300Y129850D02*
X465800Y129850D01*
X478500Y130250D02*
X478500Y112750D01*
X474000Y112750D01*
X474000Y130250D01*
X478500Y130250D01*
X478500Y114175D02*
X474000Y114175D01*
X474000Y115600D02*
X478500Y115600D01*
X478500Y117025D02*
X474000Y117025D01*
X474000Y118450D02*
X478500Y118450D01*
X478500Y119875D02*
X474000Y119875D01*
X474000Y121300D02*
X478500Y121300D01*
X478500Y122725D02*
X474000Y122725D01*
X474000Y124150D02*
X478500Y124150D01*
X478500Y125575D02*
X474000Y125575D01*
X474000Y127000D02*
X478500Y127000D01*
X478500Y128425D02*
X474000Y128425D01*
X474000Y129850D02*
X478500Y129850D01*
X491200Y130250D02*
X491200Y112750D01*
X486700Y112750D01*
X486700Y130250D01*
X491200Y130250D01*
X491200Y114175D02*
X486700Y114175D01*
X486700Y115600D02*
X491200Y115600D01*
X491200Y117025D02*
X486700Y117025D01*
X486700Y118450D02*
X491200Y118450D01*
X491200Y119875D02*
X486700Y119875D01*
X486700Y121300D02*
X491200Y121300D01*
X491200Y122725D02*
X486700Y122725D01*
X486700Y124150D02*
X491200Y124150D01*
X491200Y125575D02*
X486700Y125575D01*
X486700Y127000D02*
X491200Y127000D01*
X491200Y128425D02*
X486700Y128425D01*
X486700Y129850D02*
X491200Y129850D01*
X491200Y161850D02*
X491200Y179350D01*
X491200Y161850D02*
X486700Y161850D01*
X486700Y179350D01*
X491200Y179350D01*
X491200Y163275D02*
X486700Y163275D01*
X486700Y164700D02*
X491200Y164700D01*
X491200Y166125D02*
X486700Y166125D01*
X486700Y167550D02*
X491200Y167550D01*
X491200Y168975D02*
X486700Y168975D01*
X486700Y170400D02*
X491200Y170400D01*
X491200Y171825D02*
X486700Y171825D01*
X486700Y173250D02*
X491200Y173250D01*
X491200Y174675D02*
X486700Y174675D01*
X486700Y176100D02*
X491200Y176100D01*
X491200Y177525D02*
X486700Y177525D01*
X486700Y178950D02*
X491200Y178950D01*
X478500Y179350D02*
X478500Y161850D01*
X474000Y161850D01*
X474000Y179350D01*
X478500Y179350D01*
X478500Y163275D02*
X474000Y163275D01*
X474000Y164700D02*
X478500Y164700D01*
X478500Y166125D02*
X474000Y166125D01*
X474000Y167550D02*
X478500Y167550D01*
X478500Y168975D02*
X474000Y168975D01*
X474000Y170400D02*
X478500Y170400D01*
X478500Y171825D02*
X474000Y171825D01*
X474000Y173250D02*
X478500Y173250D01*
X478500Y174675D02*
X474000Y174675D01*
X474000Y176100D02*
X478500Y176100D01*
X478500Y177525D02*
X474000Y177525D01*
X474000Y178950D02*
X478500Y178950D01*
X465800Y179350D02*
X465800Y161850D01*
X461300Y161850D01*
X461300Y179350D01*
X465800Y179350D01*
X465800Y163275D02*
X461300Y163275D01*
X461300Y164700D02*
X465800Y164700D01*
X465800Y166125D02*
X461300Y166125D01*
X461300Y167550D02*
X465800Y167550D01*
X465800Y168975D02*
X461300Y168975D01*
X461300Y170400D02*
X465800Y170400D01*
X465800Y171825D02*
X461300Y171825D01*
X461300Y173250D02*
X465800Y173250D01*
X465800Y174675D02*
X461300Y174675D01*
X461300Y176100D02*
X465800Y176100D01*
X465800Y177525D02*
X461300Y177525D01*
X461300Y178950D02*
X465800Y178950D01*
X453100Y179350D02*
X453100Y161850D01*
X448600Y161850D01*
X448600Y179350D01*
X453100Y179350D01*
X453100Y163275D02*
X448600Y163275D01*
X448600Y164700D02*
X453100Y164700D01*
X453100Y166125D02*
X448600Y166125D01*
X448600Y167550D02*
X453100Y167550D01*
X453100Y168975D02*
X448600Y168975D01*
X448600Y170400D02*
X453100Y170400D01*
X453100Y171825D02*
X448600Y171825D01*
X448600Y173250D02*
X453100Y173250D01*
X453100Y174675D02*
X448600Y174675D01*
X448600Y176100D02*
X453100Y176100D01*
X453100Y177525D02*
X448600Y177525D01*
X448600Y178950D02*
X453100Y178950D01*
X440400Y179350D02*
X440400Y161850D01*
X435900Y161850D01*
X435900Y179350D01*
X440400Y179350D01*
X440400Y163275D02*
X435900Y163275D01*
X435900Y164700D02*
X440400Y164700D01*
X440400Y166125D02*
X435900Y166125D01*
X435900Y167550D02*
X440400Y167550D01*
X440400Y168975D02*
X435900Y168975D01*
X435900Y170400D02*
X440400Y170400D01*
X440400Y171825D02*
X435900Y171825D01*
X435900Y173250D02*
X440400Y173250D01*
X440400Y174675D02*
X435900Y174675D01*
X435900Y176100D02*
X440400Y176100D01*
X440400Y177525D02*
X435900Y177525D01*
X435900Y178950D02*
X440400Y178950D01*
X427700Y179350D02*
X427700Y161850D01*
X423200Y161850D01*
X423200Y179350D01*
X427700Y179350D01*
X427700Y163275D02*
X423200Y163275D01*
X423200Y164700D02*
X427700Y164700D01*
X427700Y166125D02*
X423200Y166125D01*
X423200Y167550D02*
X427700Y167550D01*
X427700Y168975D02*
X423200Y168975D01*
X423200Y170400D02*
X427700Y170400D01*
X427700Y171825D02*
X423200Y171825D01*
X423200Y173250D02*
X427700Y173250D01*
X427700Y174675D02*
X423200Y174675D01*
X423200Y176100D02*
X427700Y176100D01*
X427700Y177525D02*
X423200Y177525D01*
X423200Y178950D02*
X427700Y178950D01*
X415000Y179350D02*
X415000Y161850D01*
X410500Y161850D01*
X410500Y179350D01*
X415000Y179350D01*
X415000Y163275D02*
X410500Y163275D01*
X410500Y164700D02*
X415000Y164700D01*
X415000Y166125D02*
X410500Y166125D01*
X410500Y167550D02*
X415000Y167550D01*
X415000Y168975D02*
X410500Y168975D01*
X410500Y170400D02*
X415000Y170400D01*
X415000Y171825D02*
X410500Y171825D01*
X410500Y173250D02*
X415000Y173250D01*
X415000Y174675D02*
X410500Y174675D01*
X410500Y176100D02*
X415000Y176100D01*
X415000Y177525D02*
X410500Y177525D01*
X410500Y178950D02*
X415000Y178950D01*
X402300Y179350D02*
X402300Y161850D01*
X397800Y161850D01*
X397800Y179350D01*
X402300Y179350D01*
X402300Y163275D02*
X397800Y163275D01*
X397800Y164700D02*
X402300Y164700D01*
X402300Y166125D02*
X397800Y166125D01*
X397800Y167550D02*
X402300Y167550D01*
X402300Y168975D02*
X397800Y168975D01*
X397800Y170400D02*
X402300Y170400D01*
X402300Y171825D02*
X397800Y171825D01*
X397800Y173250D02*
X402300Y173250D01*
X402300Y174675D02*
X397800Y174675D01*
X397800Y176100D02*
X402300Y176100D01*
X402300Y177525D02*
X397800Y177525D01*
X397800Y178950D02*
X402300Y178950D01*
D12*
X261460Y162355D03*
X256460Y162355D03*
X251460Y162355D03*
X246460Y162355D03*
X241460Y162355D03*
X241460Y120093D03*
X246460Y120093D03*
X251460Y120093D03*
X256460Y120093D03*
X261460Y120093D03*
D13*
X600462Y135000D03*
X600462Y145000D03*
X600462Y155000D03*
X600462Y165000D03*
D14*
X639462Y122000D03*
X639462Y178000D03*
D13*
X50540Y165000D03*
X50540Y155000D03*
X50540Y145000D03*
X50540Y135000D03*
D14*
X11540Y178000D03*
X11540Y122000D03*
D15*
X95250Y160900D03*
X95250Y143900D03*
X279146Y149724D03*
X279146Y132724D03*
X374650Y173600D03*
X374650Y156600D03*
X218068Y189484D03*
X235068Y189484D03*
D16*
X213487Y144533D03*
X213487Y129533D03*
X95250Y33775D03*
X95250Y48775D03*
D17*
X223694Y119253D03*
X213694Y119253D03*
D18*
X95250Y61675D03*
X95250Y71675D03*
D16*
X63500Y118625D03*
X63500Y103625D03*
D17*
X74375Y104775D03*
X84375Y104775D03*
M02*
