G04 EAGLE Gerber RS-274X export*
G75*
%MOMM*%
%FSLAX34Y34*%
%LPD*%
%INSolderpaste Top*%
%IPPOS*%
%AMOC8*
5,1,8,0,0,1.08239X$1,22.5*%
G01*
%ADD10R,0.400000X1.150000*%
%ADD11C,0.150000*%
%ADD12R,0.250000X1.000000*%
%ADD13R,1.550000X0.600000*%
%ADD14R,1.800000X1.200000*%
%ADD15R,1.000000X1.100000*%
%ADD16R,0.800000X0.800000*%
%ADD17R,0.600000X0.700000*%
%ADD18R,0.700000X0.600000*%
%ADD19C,0.254000*%


D10*
X113960Y110224D03*
X120460Y110224D03*
X126960Y110224D03*
X133460Y110224D03*
X139960Y110224D03*
X146460Y110224D03*
X152960Y110224D03*
X159460Y110224D03*
X165960Y110224D03*
X172460Y110224D03*
X178960Y110224D03*
X185460Y110224D03*
X191960Y110224D03*
X198460Y110224D03*
X198460Y172224D03*
X191960Y172224D03*
X185460Y172224D03*
X178960Y172224D03*
X172460Y172224D03*
X165960Y172224D03*
X159460Y172224D03*
X152960Y172224D03*
X146460Y172224D03*
X139960Y172224D03*
X133460Y172224D03*
X126960Y172224D03*
X120460Y172224D03*
X113960Y172224D03*
D11*
X402300Y130250D02*
X402300Y112750D01*
X397800Y112750D01*
X397800Y130250D01*
X402300Y130250D01*
X402300Y114175D02*
X397800Y114175D01*
X397800Y115600D02*
X402300Y115600D01*
X402300Y117025D02*
X397800Y117025D01*
X397800Y118450D02*
X402300Y118450D01*
X402300Y119875D02*
X397800Y119875D01*
X397800Y121300D02*
X402300Y121300D01*
X402300Y122725D02*
X397800Y122725D01*
X397800Y124150D02*
X402300Y124150D01*
X402300Y125575D02*
X397800Y125575D01*
X397800Y127000D02*
X402300Y127000D01*
X402300Y128425D02*
X397800Y128425D01*
X397800Y129850D02*
X402300Y129850D01*
X415000Y130250D02*
X415000Y112750D01*
X410500Y112750D01*
X410500Y130250D01*
X415000Y130250D01*
X415000Y114175D02*
X410500Y114175D01*
X410500Y115600D02*
X415000Y115600D01*
X415000Y117025D02*
X410500Y117025D01*
X410500Y118450D02*
X415000Y118450D01*
X415000Y119875D02*
X410500Y119875D01*
X410500Y121300D02*
X415000Y121300D01*
X415000Y122725D02*
X410500Y122725D01*
X410500Y124150D02*
X415000Y124150D01*
X415000Y125575D02*
X410500Y125575D01*
X410500Y127000D02*
X415000Y127000D01*
X415000Y128425D02*
X410500Y128425D01*
X410500Y129850D02*
X415000Y129850D01*
X427700Y130250D02*
X427700Y112750D01*
X423200Y112750D01*
X423200Y130250D01*
X427700Y130250D01*
X427700Y114175D02*
X423200Y114175D01*
X423200Y115600D02*
X427700Y115600D01*
X427700Y117025D02*
X423200Y117025D01*
X423200Y118450D02*
X427700Y118450D01*
X427700Y119875D02*
X423200Y119875D01*
X423200Y121300D02*
X427700Y121300D01*
X427700Y122725D02*
X423200Y122725D01*
X423200Y124150D02*
X427700Y124150D01*
X427700Y125575D02*
X423200Y125575D01*
X423200Y127000D02*
X427700Y127000D01*
X427700Y128425D02*
X423200Y128425D01*
X423200Y129850D02*
X427700Y129850D01*
X440400Y130250D02*
X440400Y112750D01*
X435900Y112750D01*
X435900Y130250D01*
X440400Y130250D01*
X440400Y114175D02*
X435900Y114175D01*
X435900Y115600D02*
X440400Y115600D01*
X440400Y117025D02*
X435900Y117025D01*
X435900Y118450D02*
X440400Y118450D01*
X440400Y119875D02*
X435900Y119875D01*
X435900Y121300D02*
X440400Y121300D01*
X440400Y122725D02*
X435900Y122725D01*
X435900Y124150D02*
X440400Y124150D01*
X440400Y125575D02*
X435900Y125575D01*
X435900Y127000D02*
X440400Y127000D01*
X440400Y128425D02*
X435900Y128425D01*
X435900Y129850D02*
X440400Y129850D01*
X453100Y130250D02*
X453100Y112750D01*
X448600Y112750D01*
X448600Y130250D01*
X453100Y130250D01*
X453100Y114175D02*
X448600Y114175D01*
X448600Y115600D02*
X453100Y115600D01*
X453100Y117025D02*
X448600Y117025D01*
X448600Y118450D02*
X453100Y118450D01*
X453100Y119875D02*
X448600Y119875D01*
X448600Y121300D02*
X453100Y121300D01*
X453100Y122725D02*
X448600Y122725D01*
X448600Y124150D02*
X453100Y124150D01*
X453100Y125575D02*
X448600Y125575D01*
X448600Y127000D02*
X453100Y127000D01*
X453100Y128425D02*
X448600Y128425D01*
X448600Y129850D02*
X453100Y129850D01*
X465800Y130250D02*
X465800Y112750D01*
X461300Y112750D01*
X461300Y130250D01*
X465800Y130250D01*
X465800Y114175D02*
X461300Y114175D01*
X461300Y115600D02*
X465800Y115600D01*
X465800Y117025D02*
X461300Y117025D01*
X461300Y118450D02*
X465800Y118450D01*
X465800Y119875D02*
X461300Y119875D01*
X461300Y121300D02*
X465800Y121300D01*
X465800Y122725D02*
X461300Y122725D01*
X461300Y124150D02*
X465800Y124150D01*
X465800Y125575D02*
X461300Y125575D01*
X461300Y127000D02*
X465800Y127000D01*
X465800Y128425D02*
X461300Y128425D01*
X461300Y129850D02*
X465800Y129850D01*
X478500Y130250D02*
X478500Y112750D01*
X474000Y112750D01*
X474000Y130250D01*
X478500Y130250D01*
X478500Y114175D02*
X474000Y114175D01*
X474000Y115600D02*
X478500Y115600D01*
X478500Y117025D02*
X474000Y117025D01*
X474000Y118450D02*
X478500Y118450D01*
X478500Y119875D02*
X474000Y119875D01*
X474000Y121300D02*
X478500Y121300D01*
X478500Y122725D02*
X474000Y122725D01*
X474000Y124150D02*
X478500Y124150D01*
X478500Y125575D02*
X474000Y125575D01*
X474000Y127000D02*
X478500Y127000D01*
X478500Y128425D02*
X474000Y128425D01*
X474000Y129850D02*
X478500Y129850D01*
X491200Y130250D02*
X491200Y112750D01*
X486700Y112750D01*
X486700Y130250D01*
X491200Y130250D01*
X491200Y114175D02*
X486700Y114175D01*
X486700Y115600D02*
X491200Y115600D01*
X491200Y117025D02*
X486700Y117025D01*
X486700Y118450D02*
X491200Y118450D01*
X491200Y119875D02*
X486700Y119875D01*
X486700Y121300D02*
X491200Y121300D01*
X491200Y122725D02*
X486700Y122725D01*
X486700Y124150D02*
X491200Y124150D01*
X491200Y125575D02*
X486700Y125575D01*
X486700Y127000D02*
X491200Y127000D01*
X491200Y128425D02*
X486700Y128425D01*
X486700Y129850D02*
X491200Y129850D01*
X491200Y161850D02*
X491200Y179350D01*
X491200Y161850D02*
X486700Y161850D01*
X486700Y179350D01*
X491200Y179350D01*
X491200Y163275D02*
X486700Y163275D01*
X486700Y164700D02*
X491200Y164700D01*
X491200Y166125D02*
X486700Y166125D01*
X486700Y167550D02*
X491200Y167550D01*
X491200Y168975D02*
X486700Y168975D01*
X486700Y170400D02*
X491200Y170400D01*
X491200Y171825D02*
X486700Y171825D01*
X486700Y173250D02*
X491200Y173250D01*
X491200Y174675D02*
X486700Y174675D01*
X486700Y176100D02*
X491200Y176100D01*
X491200Y177525D02*
X486700Y177525D01*
X486700Y178950D02*
X491200Y178950D01*
X478500Y179350D02*
X478500Y161850D01*
X474000Y161850D01*
X474000Y179350D01*
X478500Y179350D01*
X478500Y163275D02*
X474000Y163275D01*
X474000Y164700D02*
X478500Y164700D01*
X478500Y166125D02*
X474000Y166125D01*
X474000Y167550D02*
X478500Y167550D01*
X478500Y168975D02*
X474000Y168975D01*
X474000Y170400D02*
X478500Y170400D01*
X478500Y171825D02*
X474000Y171825D01*
X474000Y173250D02*
X478500Y173250D01*
X478500Y174675D02*
X474000Y174675D01*
X474000Y176100D02*
X478500Y176100D01*
X478500Y177525D02*
X474000Y177525D01*
X474000Y178950D02*
X478500Y178950D01*
X465800Y179350D02*
X465800Y161850D01*
X461300Y161850D01*
X461300Y179350D01*
X465800Y179350D01*
X465800Y163275D02*
X461300Y163275D01*
X461300Y164700D02*
X465800Y164700D01*
X465800Y166125D02*
X461300Y166125D01*
X461300Y167550D02*
X465800Y167550D01*
X465800Y168975D02*
X461300Y168975D01*
X461300Y170400D02*
X465800Y170400D01*
X465800Y171825D02*
X461300Y171825D01*
X461300Y173250D02*
X465800Y173250D01*
X465800Y174675D02*
X461300Y174675D01*
X461300Y176100D02*
X465800Y176100D01*
X465800Y177525D02*
X461300Y177525D01*
X461300Y178950D02*
X465800Y178950D01*
X453100Y179350D02*
X453100Y161850D01*
X448600Y161850D01*
X448600Y179350D01*
X453100Y179350D01*
X453100Y163275D02*
X448600Y163275D01*
X448600Y164700D02*
X453100Y164700D01*
X453100Y166125D02*
X448600Y166125D01*
X448600Y167550D02*
X453100Y167550D01*
X453100Y168975D02*
X448600Y168975D01*
X448600Y170400D02*
X453100Y170400D01*
X453100Y171825D02*
X448600Y171825D01*
X448600Y173250D02*
X453100Y173250D01*
X453100Y174675D02*
X448600Y174675D01*
X448600Y176100D02*
X453100Y176100D01*
X453100Y177525D02*
X448600Y177525D01*
X448600Y178950D02*
X453100Y178950D01*
X440400Y179350D02*
X440400Y161850D01*
X435900Y161850D01*
X435900Y179350D01*
X440400Y179350D01*
X440400Y163275D02*
X435900Y163275D01*
X435900Y164700D02*
X440400Y164700D01*
X440400Y166125D02*
X435900Y166125D01*
X435900Y167550D02*
X440400Y167550D01*
X440400Y168975D02*
X435900Y168975D01*
X435900Y170400D02*
X440400Y170400D01*
X440400Y171825D02*
X435900Y171825D01*
X435900Y173250D02*
X440400Y173250D01*
X440400Y174675D02*
X435900Y174675D01*
X435900Y176100D02*
X440400Y176100D01*
X440400Y177525D02*
X435900Y177525D01*
X435900Y178950D02*
X440400Y178950D01*
X427700Y179350D02*
X427700Y161850D01*
X423200Y161850D01*
X423200Y179350D01*
X427700Y179350D01*
X427700Y163275D02*
X423200Y163275D01*
X423200Y164700D02*
X427700Y164700D01*
X427700Y166125D02*
X423200Y166125D01*
X423200Y167550D02*
X427700Y167550D01*
X427700Y168975D02*
X423200Y168975D01*
X423200Y170400D02*
X427700Y170400D01*
X427700Y171825D02*
X423200Y171825D01*
X423200Y173250D02*
X427700Y173250D01*
X427700Y174675D02*
X423200Y174675D01*
X423200Y176100D02*
X427700Y176100D01*
X427700Y177525D02*
X423200Y177525D01*
X423200Y178950D02*
X427700Y178950D01*
X415000Y179350D02*
X415000Y161850D01*
X410500Y161850D01*
X410500Y179350D01*
X415000Y179350D01*
X415000Y163275D02*
X410500Y163275D01*
X410500Y164700D02*
X415000Y164700D01*
X415000Y166125D02*
X410500Y166125D01*
X410500Y167550D02*
X415000Y167550D01*
X415000Y168975D02*
X410500Y168975D01*
X410500Y170400D02*
X415000Y170400D01*
X415000Y171825D02*
X410500Y171825D01*
X410500Y173250D02*
X415000Y173250D01*
X415000Y174675D02*
X410500Y174675D01*
X410500Y176100D02*
X415000Y176100D01*
X415000Y177525D02*
X410500Y177525D01*
X410500Y178950D02*
X415000Y178950D01*
X402300Y179350D02*
X402300Y161850D01*
X397800Y161850D01*
X397800Y179350D01*
X402300Y179350D01*
X402300Y163275D02*
X397800Y163275D01*
X397800Y164700D02*
X402300Y164700D01*
X402300Y166125D02*
X397800Y166125D01*
X397800Y167550D02*
X402300Y167550D01*
X402300Y168975D02*
X397800Y168975D01*
X397800Y170400D02*
X402300Y170400D01*
X402300Y171825D02*
X397800Y171825D01*
X397800Y173250D02*
X402300Y173250D01*
X402300Y174675D02*
X397800Y174675D01*
X397800Y176100D02*
X402300Y176100D01*
X402300Y177525D02*
X397800Y177525D01*
X397800Y178950D02*
X402300Y178950D01*
D12*
X261460Y162355D03*
X256460Y162355D03*
X251460Y162355D03*
X246460Y162355D03*
X241460Y162355D03*
X241460Y120093D03*
X246460Y120093D03*
X251460Y120093D03*
X256460Y120093D03*
X261460Y120093D03*
D13*
X600462Y135000D03*
X600462Y145000D03*
X600462Y155000D03*
X600462Y165000D03*
D14*
X639462Y122000D03*
X639462Y178000D03*
D13*
X50540Y165000D03*
X50540Y155000D03*
X50540Y145000D03*
X50540Y135000D03*
D14*
X11540Y178000D03*
X11540Y122000D03*
D15*
X95250Y160900D03*
X95250Y143900D03*
X279146Y149724D03*
X279146Y132724D03*
X374650Y173600D03*
X374650Y156600D03*
X218068Y189484D03*
X235068Y189484D03*
D16*
X213487Y144533D03*
X213487Y129533D03*
X95250Y33775D03*
X95250Y48775D03*
D17*
X223694Y119253D03*
X213694Y119253D03*
D18*
X95250Y61675D03*
X95250Y71675D03*
D16*
X63500Y118625D03*
X63500Y103625D03*
D17*
X74375Y104775D03*
X84375Y104775D03*
D19*
X0Y30078D02*
X172Y27410D01*
X576Y24768D01*
X1208Y22171D01*
X2065Y19639D01*
X3139Y17191D01*
X4422Y14846D01*
X5905Y12621D01*
X7575Y10535D01*
X9422Y8602D01*
X11430Y6837D01*
X13584Y5254D01*
X15867Y3865D01*
X18264Y2680D01*
X20754Y1708D01*
X23319Y958D01*
X25941Y433D01*
X28598Y139D01*
X31270Y78D01*
X621270Y78D01*
X623827Y245D01*
X626360Y634D01*
X628849Y1243D01*
X631275Y2066D01*
X633621Y3098D01*
X635867Y4330D01*
X637998Y5753D01*
X639997Y7356D01*
X641848Y9128D01*
X643538Y11054D01*
X645054Y13120D01*
X646383Y15310D01*
X647517Y17608D01*
X648446Y19996D01*
X649164Y22456D01*
X649664Y24969D01*
X649944Y27516D01*
X650000Y30078D01*
X650000Y270078D01*
X649886Y272693D01*
X649544Y275287D01*
X648978Y277843D01*
X648191Y280339D01*
X647189Y282757D01*
X645981Y285078D01*
X644575Y287285D01*
X642981Y289362D01*
X641213Y291291D01*
X639284Y293059D01*
X637207Y294653D01*
X635000Y296059D01*
X632679Y297267D01*
X630261Y298269D01*
X627765Y299056D01*
X625209Y299622D01*
X622615Y299964D01*
X620000Y300078D01*
X30000Y300078D01*
X27385Y299964D01*
X24791Y299622D01*
X22235Y299056D01*
X19739Y298269D01*
X17321Y297267D01*
X15000Y296059D01*
X12793Y294653D01*
X10716Y293059D01*
X8787Y291291D01*
X7019Y289362D01*
X5425Y287285D01*
X4019Y285078D01*
X2811Y282757D01*
X1809Y280339D01*
X1022Y277843D01*
X456Y275287D01*
X114Y272693D01*
X0Y270078D01*
X0Y30078D01*
X49000Y34578D02*
X48929Y33581D01*
X48786Y32591D01*
X48574Y31614D01*
X48292Y30654D01*
X47943Y29717D01*
X47527Y28807D01*
X47048Y27930D01*
X46507Y27088D01*
X45908Y26288D01*
X45253Y25532D01*
X44546Y24825D01*
X43790Y24170D01*
X42990Y23571D01*
X42148Y23030D01*
X41271Y22551D01*
X40361Y22135D01*
X39424Y21786D01*
X38465Y21504D01*
X37487Y21292D01*
X36498Y21149D01*
X35500Y21078D01*
X34500Y21078D01*
X33503Y21149D01*
X32513Y21292D01*
X31536Y21504D01*
X30576Y21786D01*
X29639Y22135D01*
X28729Y22551D01*
X27852Y23030D01*
X27010Y23571D01*
X26210Y24170D01*
X25454Y24825D01*
X24747Y25532D01*
X24092Y26288D01*
X23493Y27088D01*
X22952Y27930D01*
X22473Y28807D01*
X22057Y29717D01*
X21708Y30654D01*
X21426Y31614D01*
X21214Y32591D01*
X21071Y33581D01*
X21000Y34578D01*
X21000Y35578D01*
X21071Y36576D01*
X21214Y37565D01*
X21426Y38543D01*
X21708Y39502D01*
X22057Y40439D01*
X22473Y41349D01*
X22952Y42226D01*
X23493Y43068D01*
X24092Y43868D01*
X24747Y44624D01*
X25454Y45331D01*
X26210Y45986D01*
X27010Y46585D01*
X27852Y47126D01*
X28729Y47605D01*
X29639Y48021D01*
X30576Y48370D01*
X31536Y48652D01*
X32513Y48864D01*
X33503Y49007D01*
X34500Y49078D01*
X35500Y49078D01*
X36498Y49007D01*
X37487Y48864D01*
X38465Y48652D01*
X39424Y48370D01*
X40361Y48021D01*
X41271Y47605D01*
X42148Y47126D01*
X42990Y46585D01*
X43790Y45986D01*
X44546Y45331D01*
X45253Y44624D01*
X45908Y43868D01*
X46507Y43068D01*
X47048Y42226D01*
X47527Y41349D01*
X47943Y40439D01*
X48292Y39502D01*
X48574Y38543D01*
X48786Y37565D01*
X48929Y36576D01*
X49000Y35578D01*
X49000Y34578D01*
X49000Y264578D02*
X48929Y263581D01*
X48786Y262591D01*
X48574Y261614D01*
X48292Y260654D01*
X47943Y259717D01*
X47527Y258807D01*
X47048Y257930D01*
X46507Y257088D01*
X45908Y256288D01*
X45253Y255532D01*
X44546Y254825D01*
X43790Y254170D01*
X42990Y253571D01*
X42148Y253030D01*
X41271Y252551D01*
X40361Y252135D01*
X39424Y251786D01*
X38465Y251504D01*
X37487Y251292D01*
X36498Y251149D01*
X35500Y251078D01*
X34500Y251078D01*
X33503Y251149D01*
X32513Y251292D01*
X31536Y251504D01*
X30576Y251786D01*
X29639Y252135D01*
X28729Y252551D01*
X27852Y253030D01*
X27010Y253571D01*
X26210Y254170D01*
X25454Y254825D01*
X24747Y255532D01*
X24092Y256288D01*
X23493Y257088D01*
X22952Y257930D01*
X22473Y258807D01*
X22057Y259717D01*
X21708Y260654D01*
X21426Y261614D01*
X21214Y262591D01*
X21071Y263581D01*
X21000Y264578D01*
X21000Y265578D01*
X21071Y266576D01*
X21214Y267565D01*
X21426Y268543D01*
X21708Y269502D01*
X22057Y270439D01*
X22473Y271349D01*
X22952Y272226D01*
X23493Y273068D01*
X24092Y273868D01*
X24747Y274624D01*
X25454Y275331D01*
X26210Y275986D01*
X27010Y276585D01*
X27852Y277126D01*
X28729Y277605D01*
X29639Y278021D01*
X30576Y278370D01*
X31536Y278652D01*
X32513Y278864D01*
X33503Y279007D01*
X34500Y279078D01*
X35500Y279078D01*
X36498Y279007D01*
X37487Y278864D01*
X38465Y278652D01*
X39424Y278370D01*
X40361Y278021D01*
X41271Y277605D01*
X42148Y277126D01*
X42990Y276585D01*
X43790Y275986D01*
X44546Y275331D01*
X45253Y274624D01*
X45908Y273868D01*
X46507Y273068D01*
X47048Y272226D01*
X47527Y271349D01*
X47943Y270439D01*
X48292Y269502D01*
X48574Y268543D01*
X48786Y267565D01*
X48929Y266576D01*
X49000Y265578D01*
X49000Y264578D01*
X629000Y264578D02*
X628929Y263581D01*
X628786Y262591D01*
X628574Y261614D01*
X628292Y260654D01*
X627943Y259717D01*
X627527Y258807D01*
X627048Y257930D01*
X626507Y257088D01*
X625908Y256288D01*
X625253Y255532D01*
X624546Y254825D01*
X623790Y254170D01*
X622990Y253571D01*
X622148Y253030D01*
X621271Y252551D01*
X620361Y252135D01*
X619424Y251786D01*
X618465Y251504D01*
X617487Y251292D01*
X616498Y251149D01*
X615500Y251078D01*
X614500Y251078D01*
X613503Y251149D01*
X612513Y251292D01*
X611536Y251504D01*
X610576Y251786D01*
X609639Y252135D01*
X608729Y252551D01*
X607852Y253030D01*
X607010Y253571D01*
X606210Y254170D01*
X605454Y254825D01*
X604747Y255532D01*
X604092Y256288D01*
X603493Y257088D01*
X602952Y257930D01*
X602473Y258807D01*
X602057Y259717D01*
X601708Y260654D01*
X601426Y261614D01*
X601214Y262591D01*
X601071Y263581D01*
X601000Y264578D01*
X601000Y265578D01*
X601071Y266576D01*
X601214Y267565D01*
X601426Y268543D01*
X601708Y269502D01*
X602057Y270439D01*
X602473Y271349D01*
X602952Y272226D01*
X603493Y273068D01*
X604092Y273868D01*
X604747Y274624D01*
X605454Y275331D01*
X606210Y275986D01*
X607010Y276585D01*
X607852Y277126D01*
X608729Y277605D01*
X609639Y278021D01*
X610576Y278370D01*
X611536Y278652D01*
X612513Y278864D01*
X613503Y279007D01*
X614500Y279078D01*
X615500Y279078D01*
X616498Y279007D01*
X617487Y278864D01*
X618465Y278652D01*
X619424Y278370D01*
X620361Y278021D01*
X621271Y277605D01*
X622148Y277126D01*
X622990Y276585D01*
X623790Y275986D01*
X624546Y275331D01*
X625253Y274624D01*
X625908Y273868D01*
X626507Y273068D01*
X627048Y272226D01*
X627527Y271349D01*
X627943Y270439D01*
X628292Y269502D01*
X628574Y268543D01*
X628786Y267565D01*
X628929Y266576D01*
X629000Y265578D01*
X629000Y264578D01*
X629000Y34578D02*
X628929Y33581D01*
X628786Y32591D01*
X628574Y31614D01*
X628292Y30654D01*
X627943Y29717D01*
X627527Y28807D01*
X627048Y27930D01*
X626507Y27088D01*
X625908Y26288D01*
X625253Y25532D01*
X624546Y24825D01*
X623790Y24170D01*
X622990Y23571D01*
X622148Y23030D01*
X621271Y22551D01*
X620361Y22135D01*
X619424Y21786D01*
X618465Y21504D01*
X617487Y21292D01*
X616498Y21149D01*
X615500Y21078D01*
X614500Y21078D01*
X613503Y21149D01*
X612513Y21292D01*
X611536Y21504D01*
X610576Y21786D01*
X609639Y22135D01*
X608729Y22551D01*
X607852Y23030D01*
X607010Y23571D01*
X606210Y24170D01*
X605454Y24825D01*
X604747Y25532D01*
X604092Y26288D01*
X603493Y27088D01*
X602952Y27930D01*
X602473Y28807D01*
X602057Y29717D01*
X601708Y30654D01*
X601426Y31614D01*
X601214Y32591D01*
X601071Y33581D01*
X601000Y34578D01*
X601000Y35578D01*
X601071Y36576D01*
X601214Y37565D01*
X601426Y38543D01*
X601708Y39502D01*
X602057Y40439D01*
X602473Y41349D01*
X602952Y42226D01*
X603493Y43068D01*
X604092Y43868D01*
X604747Y44624D01*
X605454Y45331D01*
X606210Y45986D01*
X607010Y46585D01*
X607852Y47126D01*
X608729Y47605D01*
X609639Y48021D01*
X610576Y48370D01*
X611536Y48652D01*
X612513Y48864D01*
X613503Y49007D01*
X614500Y49078D01*
X615500Y49078D01*
X616498Y49007D01*
X617487Y48864D01*
X618465Y48652D01*
X619424Y48370D01*
X620361Y48021D01*
X621271Y47605D01*
X622148Y47126D01*
X622990Y46585D01*
X623790Y45986D01*
X624546Y45331D01*
X625253Y44624D01*
X625908Y43868D01*
X626507Y43068D01*
X627048Y42226D01*
X627527Y41349D01*
X627943Y40439D01*
X628292Y39502D01*
X628574Y38543D01*
X628786Y37565D01*
X628929Y36576D01*
X629000Y35578D01*
X629000Y34578D01*
M02*
