G04 EAGLE Gerber RS-274X export*
G75*
%MOMM*%
%FSLAX34Y34*%
%LPD*%
%IN*%
%IPPOS*%
%AMOC8*
5,1,8,0,0,1.08239X$1,22.5*%
G01*
%ADD10C,0.254000*%


D10*
X0Y30078D02*
X172Y27410D01*
X576Y24768D01*
X1208Y22171D01*
X2065Y19639D01*
X3139Y17191D01*
X4422Y14846D01*
X5905Y12621D01*
X7575Y10535D01*
X9422Y8602D01*
X11430Y6837D01*
X13584Y5254D01*
X15867Y3865D01*
X18264Y2680D01*
X20754Y1708D01*
X23319Y958D01*
X25941Y433D01*
X28598Y139D01*
X31270Y78D01*
X621270Y78D01*
X623827Y245D01*
X626360Y634D01*
X628849Y1243D01*
X631275Y2066D01*
X633621Y3098D01*
X635867Y4330D01*
X637998Y5753D01*
X639997Y7356D01*
X641848Y9128D01*
X643538Y11054D01*
X645054Y13120D01*
X646383Y15310D01*
X647517Y17608D01*
X648446Y19996D01*
X649164Y22456D01*
X649664Y24969D01*
X649944Y27516D01*
X650000Y30078D01*
X650000Y270078D01*
X649886Y272693D01*
X649544Y275287D01*
X648978Y277843D01*
X648191Y280339D01*
X647189Y282757D01*
X645981Y285078D01*
X644575Y287285D01*
X642981Y289362D01*
X641213Y291291D01*
X639284Y293059D01*
X637207Y294653D01*
X635000Y296059D01*
X632679Y297267D01*
X630261Y298269D01*
X627765Y299056D01*
X625209Y299622D01*
X622615Y299964D01*
X620000Y300078D01*
X30000Y300078D01*
X27385Y299964D01*
X24791Y299622D01*
X22235Y299056D01*
X19739Y298269D01*
X17321Y297267D01*
X15000Y296059D01*
X12793Y294653D01*
X10716Y293059D01*
X8787Y291291D01*
X7019Y289362D01*
X5425Y287285D01*
X4019Y285078D01*
X2811Y282757D01*
X1809Y280339D01*
X1022Y277843D01*
X456Y275287D01*
X114Y272693D01*
X0Y270078D01*
X0Y30078D01*
M02*
