M48
;GenerationSoftware,Autodesk,EAGLE,9.6.2*%
;CreationDate,2022-04-04T16:19:11Z*%
FMAT,2
ICI,OFF
METRIC,TZ,000.000
T4C0.800
T3C0.900
T2C1.000
T1C2.800
%
G90
M71
T1
X3500Y3508
X61500Y3508
X3500Y26508
X61500Y26508
T2
X14732Y22149
X60452Y22149
X57912Y22149
X55372Y22149
X52832Y22149
X50292Y22149
X47752Y22149
X45212Y22149
X42672Y22149
X40132Y22149
X37592Y22149
X35052Y22149
X32512Y22149
X29972Y22149
X29960Y6350
X27432Y22149
X24892Y22149
X22352Y22149
X19812Y22149
X17272Y22149
X12192Y22149
X7112Y22149
X4572Y22149
X9652Y22149
X2032Y22149
X62992Y22149
X17260Y3810
X17260Y6350
X19800Y3810
X19800Y6350
X22340Y3810
X22340Y6350
X24880Y3810
X24880Y6350
X27420Y3810
X27420Y6350
X29960Y3810
X32500Y3810
X32500Y6350
X35040Y3810
X35040Y6350
X37580Y3810
X37580Y6350
X40120Y3810
X40120Y6350
X42660Y3810
X42660Y6350
X45200Y3810
X45200Y6350
X47740Y3810
X47740Y6350
T3
X41390Y27778
X43930Y25238
X43930Y27778
X46470Y25238
X28690Y27778
X49010Y25238
X49010Y27778
X51550Y25238
X51550Y27778
X54090Y25238
X54090Y27778
X56630Y25238
X56630Y27778
X46470Y27778
X8370Y25238
X8370Y27778
X10910Y25238
X10910Y27778
X13450Y25238
X13450Y27778
X15990Y25238
X15990Y27778
X18530Y25238
X18530Y27778
X21070Y25238
X21070Y27778
X23610Y25238
X23610Y27778
X26150Y25238
X26150Y27778
X28690Y25238
X31230Y25238
X31230Y27778
X33770Y25238
X33770Y27778
X36310Y25238
X36310Y27778
X38850Y25238
X38850Y27778
X41390Y25238
T4
X11100Y2540
X11379Y5055
X32165Y17365
X29236Y14377
X3302Y14478
X47625Y19050
X11227Y7036
X22391Y16942
X5461Y18415
X24765Y17780
X38760Y15672
X29896Y13132
X10880Y14647
X14478Y15773
X61925Y13513
X49378Y18999
X42545Y15215
X21209Y10719
X10287Y11074
X26124Y17539
X4191Y11430
X19266Y15557
X17145Y15557
X33834Y2007
M30